<svg xmlns="http://www.w3.org/2000/svg" width="1600" height="900" viewBox="0 0 1600 900" font-family="Segoe UI, Arial, sans-serif">
  <rect width="1600" height="900" fill="#0f0f0f"/>

  <!-- Header -->
  <rect x="280" y="110" width="72" height="72" rx="16" fill="#1a1a1a" stroke="#2a2a2a" stroke-width="1.5"/>
  <g transform="translate(298,128) scale(1.5)" fill="none" stroke="#00c48c" stroke-width="2" stroke-linecap="round" stroke-linejoin="round">
    <path d="M20 11a8.1 8.1 0 0 0 -15.5 -2m-.5 -4v4h4"/>
    <path d="M4 13a8.1 8.1 0 0 0 15.5 2m.5 4v-4h-4"/>
  </g>
  <text x="372" y="143" fill="#ffffff" font-size="38" font-weight="600">SyncUp</text>
  <text x="372" y="176" fill="#9a9a9a" font-size="19">Automatically sync your Shopify orders to your project tools.</text>
  <rect x="1132" y="124" width="188" height="46" rx="23" fill="#0c3328"/>
  <circle cx="1162" cy="147" r="5" fill="#00c48c"/>
  <text x="1178" y="153" fill="#00c48c" font-size="18" font-weight="500">Sync Active</text>

  <!-- Connection card -->
  <rect x="280" y="240" width="1040" height="270" rx="16" fill="#1a1a1a" stroke="#2a2a2a" stroke-width="1.5"/>
  <circle cx="324" cy="286" r="6" fill="#00c48c"/>
  <text x="342" y="293" fill="#ffffff" font-size="20" font-weight="500">Connected to Zain Afzal's Workspace</text>
  <rect x="1170" y="266" width="120" height="40" rx="10" fill="none" stroke="#3a3a3a" stroke-width="1"/>
  <text x="1230" y="291" fill="#9a9a9a" font-size="15" text-anchor="middle">Disconnect</text>
  <rect x="320" y="322" width="960" height="50" rx="10" fill="#0e2e25" stroke="#1f5a48" stroke-width="1"/>
  <polyline points="344,348 352,356 368,338" fill="none" stroke="#00c48c" stroke-width="3" stroke-linecap="round" stroke-linejoin="round"/>
  <text x="384" y="353" fill="#34d8a6" font-size="17">Orders are syncing to Team Space / Project 1</text>
  <text x="320" y="420" fill="#ffffff" font-size="18" font-weight="500">Choose a list to sync orders into</text>
  <rect x="320" y="436" width="700" height="44" rx="8" fill="#0f0f0f" stroke="#2a2a2a" stroke-width="1"/>
  <text x="340" y="464" fill="#ffffff" font-size="16">Team Space / Project 1</text>
  <polyline points="988,454 996,462 1004,454" fill="none" stroke="#9a9a9a" stroke-width="2" stroke-linecap="round" stroke-linejoin="round"/>

  <!-- Recent activity card -->
  <rect x="280" y="545" width="1040" height="275" rx="16" fill="#1a1a1a" stroke="#2a2a2a" stroke-width="1.5"/>
  <text x="320" y="587" fill="#ffffff" font-size="20" font-weight="500">Recent activity</text>
  <polyline points="322,620 330,628 346,610" fill="none" stroke="#00c48c" stroke-width="3" stroke-linecap="round" stroke-linejoin="round"/>
  <text x="362" y="626" fill="#d8d8d8" font-size="17">Order #1020 (Russell Winfield) synced to ClickUp</text>
  <text x="1280" y="626" fill="#6a6a6a" font-size="15" text-anchor="end">2m ago</text>
  <polyline points="322,658 330,666 346,648" fill="none" stroke="#00c48c" stroke-width="3" stroke-linecap="round" stroke-linejoin="round"/>
  <text x="362" y="664" fill="#d8d8d8" font-size="17">Order #1019 (Priya Anand) synced to ClickUp</text>
  <text x="1280" y="664" fill="#6a6a6a" font-size="15" text-anchor="end">14m ago</text>
  <polyline points="322,696 330,704 346,686" fill="none" stroke="#00c48c" stroke-width="3" stroke-linecap="round" stroke-linejoin="round"/>
  <text x="362" y="702" fill="#d8d8d8" font-size="17">Order #1018 (Marcus Bell) synced to ClickUp</text>
  <text x="1280" y="702" fill="#6a6a6a" font-size="15" text-anchor="end">1h ago</text>
  <polyline points="322,734 330,742 346,724" fill="none" stroke="#00c48c" stroke-width="3" stroke-linecap="round" stroke-linejoin="round"/>
  <text x="362" y="740" fill="#d8d8d8" font-size="17">Order #1017 (Aanya Sharma) synced to ClickUp</text>
  <text x="1280" y="740" fill="#6a6a6a" font-size="15" text-anchor="end">3h ago</text>
  <circle cx="330" cy="776" r="5" fill="#00c48c"/>
  <text x="362" y="782" fill="#d8d8d8" font-size="17">Connected to ClickUp (Zain Afzal's Workspace)</text>
  <text x="1280" y="782" fill="#6a6a6a" font-size="15" text-anchor="end">4h ago</text>
</svg>
