<svg xmlns="http://www.w3.org/2000/svg" width="1600" height="900" viewBox="0 0 1600 900" font-family="Segoe UI, Arial, sans-serif">
  <rect width="1600" height="900" fill="#0f0f0f"/>

  <!-- Breadcrumb + title -->
  <text x="300" y="120" fill="#9a9a9a" font-size="18">Team Space  /  Project 1</text>
  <text x="300" y="172" fill="#ffffff" font-size="36" font-weight="600">Order #1020 - Russell Winfield</text>

  <!-- Tag + status pills -->
  <rect x="300" y="198" width="168" height="38" rx="19" fill="#0c3328"/>
  <text x="384" y="223" fill="#00c48c" font-size="16" font-weight="500" text-anchor="middle">shopify-order</text>
  <rect x="484" y="198" width="96" height="38" rx="19" fill="#222222"/>
  <text x="532" y="223" fill="#bdbdbd" font-size="16" text-anchor="middle">To do</text>
  <rect x="596" y="198" width="150" height="38" rx="19" fill="#0c3328"/>
  <circle cx="624" cy="217" r="5" fill="#00c48c"/>
  <text x="688" y="223" fill="#00c48c" font-size="16" text-anchor="middle">Synced</text>

  <!-- Task body card -->
  <rect x="300" y="266" width="1000" height="544" rx="16" fill="#1a1a1a" stroke="#2a2a2a" stroke-width="1.5"/>

  <text x="332" y="312" fill="#00c48c" font-size="18" font-weight="600">Customer</text>
  <text x="332" y="348" fill="#e6e6e6" font-size="19">Russell Winfield</text>
  <text x="332" y="380" fill="#9a9a9a" font-size="17">russell.winfield@example.com</text>
  <text x="332" y="410" fill="#9a9a9a" font-size="17">+1 416-555-0135</text>

  <line x1="332" y1="442" x2="1268" y2="442" stroke="#2a2a2a" stroke-width="1"/>

  <text x="332" y="486" fill="#00c48c" font-size="18" font-weight="600">Items</text>
  <text x="332" y="522" fill="#e6e6e6" font-size="19">1 &#215; Selling Plans Ski Wax</text>

  <line x1="332" y1="556" x2="1268" y2="556" stroke="#2a2a2a" stroke-width="1"/>

  <text x="332" y="600" fill="#00c48c" font-size="18" font-weight="600">Payment</text>
  <text x="332" y="636" fill="#9a9a9a" font-size="17">Subtotal</text>
  <text x="1268" y="636" fill="#e6e6e6" font-size="17" text-anchor="end">CAD 34.00</text>
  <text x="332" y="668" fill="#e6e6e6" font-size="19" font-weight="500">Total</text>
  <text x="1268" y="668" fill="#ffffff" font-size="19" font-weight="500" text-anchor="end">CAD 34.00</text>
  <rect x="1100" y="600" width="80" height="32" rx="16" fill="#0c3328"/>
  <text x="1140" y="622" fill="#00c48c" font-size="15" text-anchor="middle">Paid</text>

  <line x1="332" y1="704" x2="1268" y2="704" stroke="#2a2a2a" stroke-width="1"/>

  <text x="332" y="748" fill="#00c48c" font-size="18" font-weight="600">Ship to</text>
  <text x="332" y="784" fill="#e6e6e6" font-size="19">105 Victoria St, Toronto ON M5C 1N7, Canada</text>
</svg>
