<svg xmlns="http://www.w3.org/2000/svg" width="1600" height="900" viewBox="0 0 1600 900" font-family="Segoe UI, Arial, sans-serif">
  <rect width="1600" height="900" fill="#0f0f0f"/>

  <!-- Header -->
  <rect x="280" y="96" width="72" height="72" rx="16" fill="#1a1a1a" stroke="#2a2a2a" stroke-width="1.5"/>
  <g transform="translate(298,114) scale(1.5)" fill="none" stroke="#00c48c" stroke-width="2" stroke-linecap="round" stroke-linejoin="round">
    <path d="M20 11a8.1 8.1 0 0 0 -15.5 -2m-.5 -4v4h4"/>
    <path d="M4 13a8.1 8.1 0 0 0 15.5 2m.5 4v-4h-4"/>
  </g>
  <text x="372" y="129" fill="#ffffff" font-size="38" font-weight="600">SyncUp</text>
  <text x="372" y="162" fill="#9a9a9a" font-size="19">Automatically sync your Shopify orders to your project tools.</text>
  <rect x="1132" y="110" width="188" height="46" rx="23" fill="#0c3328"/>
  <circle cx="1162" cy="133" r="5" fill="#00c48c"/>
  <text x="1178" y="139" fill="#00c48c" font-size="18" font-weight="500">Sync Active</text>

  <!-- Plan card -->
  <rect x="280" y="206" width="1040" height="150" rx="16" fill="#1a1a1a" stroke="#2a2a2a" stroke-width="1.5"/>
  <text x="320" y="252" fill="#9a9a9a" font-size="14" font-weight="600" letter-spacing="1.5">CURRENT PLAN</text>
  <text x="320" y="296" fill="#ffffff" font-size="34" font-weight="600">Free</text>
  <text x="320" y="328" fill="#9a9a9a" font-size="17">18 / 50 orders this month</text>
  <rect x="320" y="338" width="640" height="8" rx="4" fill="#2a2a2a"/>
  <rect x="320" y="338" width="230" height="8" rx="4" fill="#00c48c"/>
  <rect x="1150" y="258" width="130" height="46" rx="10" fill="#2a2a2a" stroke="#3a3a3a" stroke-width="1"/>
  <text x="1215" y="287" fill="#ffffff" font-size="17" text-anchor="middle">Upgrade</text>

  <!-- Connection card -->
  <rect x="280" y="384" width="1040" height="255" rx="16" fill="#1a1a1a" stroke="#2a2a2a" stroke-width="1.5"/>
  <circle cx="324" cy="426" r="6" fill="#00c48c"/>
  <text x="342" y="433" fill="#ffffff" font-size="20" font-weight="500">Connected to Zain Afzal's Workspace</text>
  <rect x="1170" y="406" width="120" height="40" rx="10" fill="none" stroke="#3a3a3a" stroke-width="1"/>
  <text x="1230" y="431" fill="#9a9a9a" font-size="15" text-anchor="middle">Disconnect</text>
  <rect x="320" y="460" width="960" height="50" rx="10" fill="#0e2e25" stroke="#1f5a48" stroke-width="1"/>
  <polyline points="344,486 352,494 368,476" fill="none" stroke="#00c48c" stroke-width="3" stroke-linecap="round" stroke-linejoin="round"/>
  <text x="384" y="491" fill="#34d8a6" font-size="17">Orders are syncing to Team Space / Project 1</text>
  <text x="320" y="558" fill="#ffffff" font-size="18" font-weight="500">Choose a list to sync orders into</text>
  <rect x="320" y="574" width="700" height="44" rx="8" fill="#0f0f0f" stroke="#2a2a2a" stroke-width="1"/>
  <text x="340" y="602" fill="#ffffff" font-size="16">Team Space / Project 1</text>
  <polyline points="988,592 996,600 1004,592" fill="none" stroke="#9a9a9a" stroke-width="2" stroke-linecap="round" stroke-linejoin="round"/>

  <!-- Recent activity card -->
  <rect x="280" y="667" width="1040" height="195" rx="16" fill="#1a1a1a" stroke="#2a2a2a" stroke-width="1.5"/>
  <text x="320" y="709" fill="#ffffff" font-size="20" font-weight="500">Recent activity</text>
  <polyline points="322,742 330,750 346,732" fill="none" stroke="#00c48c" stroke-width="3" stroke-linecap="round" stroke-linejoin="round"/>
  <text x="362" y="748" fill="#d8d8d8" font-size="17">Order #1020 (Russell Winfield) synced to ClickUp</text>
  <text x="1280" y="748" fill="#6a6a6a" font-size="15" text-anchor="end">2m ago</text>
  <polyline points="322,784 330,792 346,774" fill="none" stroke="#00c48c" stroke-width="3" stroke-linecap="round" stroke-linejoin="round"/>
  <text x="362" y="790" fill="#d8d8d8" font-size="17">Order #1019 (Russell Winfield) synced to ClickUp</text>
  <text x="1280" y="790" fill="#6a6a6a" font-size="15" text-anchor="end">8m ago</text>
  <circle cx="330" cy="826" r="5" fill="#00c48c"/>
  <text x="362" y="832" fill="#d8d8d8" font-size="17">Connected to ClickUp (Zain Afzal's Workspace)</text>
  <text x="1280" y="832" fill="#6a6a6a" font-size="15" text-anchor="end">12m ago</text>
</svg>
